<svg xmlns="http://www.w3.org/2000/svg" width="1440" height="2800" viewBox="0 0 1440 2800" fill="none">
<defs>
  <style>
    @import url('https://fonts.googleapis.com/css2?family=Inter:wght@400;500;600;700;800&amp;display=swap');
    text { font-family: 'Inter', sans-serif; }
  </style>
  <linearGradient id="heroGrad" x1="0" y1="0" x2="1440" y2="600" gradientUnits="userSpaceOnUse">
    <stop offset="0%" stop-color="#eef2ff"/>
    <stop offset="100%" stop-color="#fafafa"/>
  </linearGradient>
  <linearGradient id="featGrad" x1="0" y1="0" x2="0" y2="1" gradientUnits="objectBoundingBox">
    <stop offset="0%" stop-color="#f5f3ff"/>
    <stop offset="100%" stop-color="#fafafa"/>
  </linearGradient>
  <linearGradient id="ctaGrad" x1="0" y1="0" x2="1" y2="1" gradientUnits="objectBoundingBox">
    <stop offset="0%" stop-color="#6366f1"/>
    <stop offset="100%" stop-color="#8b5cf6"/>
  </linearGradient>
  <filter id="shadow1" x="-4%" y="-4%" width="108%" height="116%">
    <feDropShadow dx="0" dy="4" stdDeviation="12" flood-color="#6366f1" flood-opacity="0.08"/>
  </filter>
  <filter id="shadow2" x="-4%" y="-4%" width="108%" height="116%">
    <feDropShadow dx="0" dy="2" stdDeviation="8" flood-color="#000" flood-opacity="0.06"/>
  </filter>
  <filter id="shadow3" x="-4%" y="-4%" width="108%" height="116%">
    <feDropShadow dx="0" dy="8" stdDeviation="24" flood-color="#6366f1" flood-opacity="0.12"/>
  </filter>
  <clipPath id="dashClip"><rect x="730" y="160" width="590" height="380" rx="12"/></clipPath>
</defs>

<!-- Background -->
<rect width="1440" height="2800" fill="#fafafa"/>

<!-- ==================== STICKY NAV ==================== -->
<rect y="0" width="1440" height="72" fill="white" fill-opacity="0.85" filter="url(#shadow2)"/>
<!-- Logo -->
<circle cx="140" cy="36" r="16" fill="#6366f1"/>
<text x="164" y="42" font-size="20" font-weight="800" fill="#1e1b4b">OmniFlow</text>
<!-- Nav links -->
<text x="620" y="41" font-size="14" font-weight="500" fill="#64748b">Funcionalidades</text>
<text x="760" y="41" font-size="14" font-weight="500" fill="#64748b">Preços</text>
<text x="850" y="41" font-size="14" font-weight="500" fill="#64748b">Depoimentos</text>
<text x="970" y="41" font-size="14" font-weight="500" fill="#64748b">Contato</text>
<!-- Nav CTA -->
<text x="1130" y="41" font-size="14" font-weight="600" fill="#6366f1">Entrar</text>
<rect x="1200" y="18" width="140" height="36" rx="8" fill="#6366f1"/>
<text x="1232" y="41" font-size="14" font-weight="600" fill="white">Começar grátis</text>

<!-- ==================== HERO SECTION ==================== -->
<rect y="72" width="1440" height="560" fill="url(#heroGrad)"/>
<!-- Hero Text -->
<text x="120" y="220" font-size="48" font-weight="800" fill="#1e1b4b">Todos os seus canais.</text>
<text x="120" y="278" font-size="48" font-weight="800" fill="#1e1b4b">Uma só plataforma.</text>
<text x="120" y="340" font-size="18" fill="#64748b" font-weight="400">Unifique WhatsApp, Instagram, e-mail e chat em um</text>
<text x="120" y="366" font-size="18" fill="#64748b" font-weight="400">único painel. Atenda mais rápido, venda mais.</text>
<!-- Hero CTA Button -->
<rect x="120" y="400" width="220" height="52" rx="10" fill="url(#ctaGrad)" filter="url(#shadow3)"/>
<text x="155" y="432" font-size="16" font-weight="700" fill="white">Teste grátis por 14 dias</text>
<rect x="360" y="400" width="160" height="52" rx="10" fill="white" stroke="#e2e8f0" stroke-width="1.5"/>
<text x="393" y="432" font-size="16" font-weight="600" fill="#1e1b4b">Ver demo →</text>

<!-- Trust Badges -->
<g transform="translate(120, 480)">
  <!-- Badge 1 -->
  <circle cx="10" cy="10" r="10" fill="#d1fae5"/>
  <path d="M5 10 L9 14 L16 6" stroke="#10b981" stroke-width="2" fill="none" stroke-linecap="round" stroke-linejoin="round"/>
  <text x="28" y="15" font-size="13" fill="#64748b" font-weight="500">Sem cartão de crédito</text>
  <!-- Badge 2 -->
  <circle cx="210" cy="10" r="10" fill="#d1fae5"/>
  <path d="M205 10 L209 14 L216 6" stroke="#10b981" stroke-width="2" fill="none" stroke-linecap="round" stroke-linejoin="round"/>
  <text x="228" y="15" font-size="13" fill="#64748b" font-weight="500">14 dias grátis</text>
  <!-- Badge 3 -->
  <circle cx="370" cy="10" r="10" fill="#d1fae5"/>
  <path d="M365 10 L369 14 L376 6" stroke="#10b981" stroke-width="2" fill="none" stroke-linecap="round" stroke-linejoin="round"/>
  <text x="388" y="15" font-size="13" fill="#64748b" font-weight="500">Cancele quando quiser</text>
</g>

<!-- Dashboard Mockup -->
<g filter="url(#shadow3)">
  <rect x="730" y="140" width="590" height="420" rx="12" fill="white" stroke="#e2e8f0" stroke-width="1"/>
  <!-- Title bar -->
  <rect x="730" y="140" width="590" height="36" rx="12" fill="#f8fafc"/>
  <rect x="730" y="164" width="590" height="12" fill="#f8fafc"/>
  <circle cx="752" cy="158" r="5" fill="#ef4444"/>
  <circle cx="768" cy="158" r="5" fill="#fbbf24"/>
  <circle cx="784" cy="158" r="5" fill="#10b981"/>
  <!-- Sidebar -->
  <rect x="730" y="176" width="120" height="384" fill="#f1f5f9"/>
  <rect x="742" y="192" width="96" height="10" rx="3" fill="#6366f1" opacity="0.2"/>
  <rect x="742" y="214" width="80" height="8" rx="3" fill="#cbd5e1"/>
  <rect x="742" y="234" width="88" height="8" rx="3" fill="#cbd5e1"/>
  <rect x="742" y="254" width="72" height="8" rx="3" fill="#cbd5e1"/>
  <rect x="742" y="274" width="84" height="8" rx="3" fill="#cbd5e1"/>
  <rect x="742" y="304" width="60" height="6" rx="2" fill="#e2e8f0"/>
  <rect x="742" y="322" width="80" height="8" rx="3" fill="#cbd5e1"/>
  <rect x="742" y="342" width="70" height="8" rx="3" fill="#cbd5e1"/>
  <!-- Conversation list -->
  <rect x="850" y="176" width="180" height="384" fill="#ffffff" stroke="#e2e8f0" stroke-width="0.5"/>
  <rect x="862" y="190" width="156" height="44" rx="6" fill="#eef2ff"/>
  <circle cx="878" cy="212" r="12" fill="#c7d2fe"/>
  <rect x="896" y="204" width="80" height="6" rx="2" fill="#6366f1" opacity="0.5"/>
  <rect x="896" y="216" width="50" height="5" rx="2" fill="#94a3b8"/>
  <rect x="862" y="244" width="156" height="44" rx="6" fill="white"/>
  <circle cx="878" cy="266" r="12" fill="#e2e8f0"/>
  <rect x="896" y="258" width="70" height="6" rx="2" fill="#475569"/>
  <rect x="896" y="270" width="60" height="5" rx="2" fill="#94a3b8"/>
  <rect x="862" y="298" width="156" height="44" rx="6" fill="white"/>
  <circle cx="878" cy="320" r="12" fill="#e2e8f0"/>
  <rect x="896" y="312" width="90" height="6" rx="2" fill="#475569"/>
  <rect x="896" y="324" width="55" height="5" rx="2" fill="#94a3b8"/>
  <rect x="862" y="352" width="156" height="44" rx="6" fill="white"/>
  <circle cx="878" cy="374" r="12" fill="#e2e8f0"/>
  <rect x="896" y="366" width="75" height="6" rx="2" fill="#475569"/>
  <rect x="896" y="378" width="65" height="5" rx="2" fill="#94a3b8"/>
  <!-- Chat area -->
  <rect x="1030" y="176" width="290" height="384" fill="#ffffff"/>
  <rect x="1042" y="190" width="266" height="32" rx="4" fill="#f8fafc" stroke="#e2e8f0" stroke-width="0.5"/>
  <circle cx="1058" cy="206" r="10" fill="#c7d2fe"/>
  <rect x="1074" y="200" width="80" height="6" rx="2" fill="#475569"/>
  <rect x="1074" y="210" width="40" height="4" rx="2" fill="#10b981"/>
  <!-- Chat bubbles -->
  <rect x="1042" y="236" width="160" height="36" rx="8" fill="#f1f5f9"/>
  <rect x="1050" y="248" width="120" height="5" rx="2" fill="#94a3b8"/>
  <rect x="1050" y="258" width="80" height="5" rx="2" fill="#94a3b8"/>
  <rect x="1162" y="284" width="146" height="36" rx="8" fill="#eef2ff"/>
  <rect x="1170" y="296" width="110" height="5" rx="2" fill="#6366f1" opacity="0.4"/>
  <rect x="1170" y="306" width="70" height="5" rx="2" fill="#6366f1" opacity="0.4"/>
  <rect x="1042" y="332" width="180" height="36" rx="8" fill="#f1f5f9"/>
  <rect x="1050" y="344" width="140" height="5" rx="2" fill="#94a3b8"/>
  <rect x="1050" y="354" width="100" height="5" rx="2" fill="#94a3b8"/>
  <rect x="1142" y="380" width="166" height="36" rx="8" fill="#eef2ff"/>
  <rect x="1150" y="392" width="130" height="5" rx="2" fill="#6366f1" opacity="0.4"/>
  <rect x="1150" y="402" width="90" height="5" rx="2" fill="#6366f1" opacity="0.4"/>
  <!-- Input bar -->
  <rect x="1042" y="520" width="266" height="32" rx="16" fill="white" stroke="#e2e8f0" stroke-width="1"/>
  <rect x="1060" y="533" width="100" height="6" rx="2" fill="#e2e8f0"/>
  <circle cx="1284" cy="536" r="12" fill="#6366f1"/>
</g>

<!-- ==================== SOCIAL PROOF SECTION ==================== -->
<g transform="translate(0, 632)">
  <rect width="1440" height="200" fill="white"/>
  <text x="720" y="50" font-size="14" font-weight="600" fill="#94a3b8" text-anchor="middle" letter-spacing="2">CONFIANÇA DE QUEM USA</text>
  <text x="720" y="80" font-size="24" font-weight="700" fill="#1e1b4b" text-anchor="middle">+ de 500 empresas confiam no OmniFlow</text>
  <!-- Company logos (gray placeholders) -->
  <rect x="170" y="105" width="120" height="36" rx="6" fill="#f1f5f9"/>
  <rect x="330" y="105" width="120" height="36" rx="6" fill="#f1f5f9"/>
  <rect x="490" y="105" width="120" height="36" rx="6" fill="#f1f5f9"/>
  <rect x="660" y="105" width="120" height="36" rx="6" fill="#f1f5f9"/>
  <rect x="830" y="105" width="120" height="36" rx="6" fill="#f1f5f9"/>
  <rect x="990" y="105" width="120" height="36" rx="6" fill="#f1f5f9"/>
  <rect x="1150" y="105" width="120" height="36" rx="6" fill="#f1f5f9"/>
  <!-- Logo text placeholders -->
  <rect x="195" y="118" width="70" height="10" rx="3" fill="#cbd5e1"/>
  <rect x="355" y="118" width="70" height="10" rx="3" fill="#cbd5e1"/>
  <rect x="515" y="118" width="70" height="10" rx="3" fill="#cbd5e1"/>
  <rect x="685" y="118" width="70" height="10" rx="3" fill="#cbd5e1"/>
  <rect x="855" y="118" width="70" height="10" rx="3" fill="#cbd5e1"/>
  <rect x="1015" y="118" width="70" height="10" rx="3" fill="#cbd5e1"/>
  <rect x="1175" y="118" width="70" height="10" rx="3" fill="#cbd5e1"/>
  <!-- Stats row -->
  <text x="400" y="175" font-size="16" font-weight="700" fill="#6366f1" text-anchor="middle">50k+ mensagens/dia</text>
  <text x="560" y="175" font-size="20" fill="#e2e8f0" text-anchor="middle">|</text>
  <text x="720" y="175" font-size="16" font-weight="700" fill="#8b5cf6" text-anchor="middle">98% satisfação</text>
  <text x="880" y="175" font-size="20" fill="#e2e8f0" text-anchor="middle">|</text>
  <text x="1040" y="175" font-size="16" font-weight="700" fill="#10b981" text-anchor="middle">24/7 suporte</text>
</g>

<!-- ==================== FEATURES SECTION ==================== -->
<g transform="translate(0, 832)">
  <rect width="1440" height="480" fill="url(#featGrad)"/>
  <text x="720" y="60" font-size="14" font-weight="600" fill="#6366f1" text-anchor="middle" letter-spacing="2">FUNCIONALIDADES</text>
  <text x="720" y="96" font-size="36" font-weight="800" fill="#1e1b4b" text-anchor="middle">Tudo que você precisa para atender melhor</text>

  <!-- Card 1: Inbox Unificado -->
  <g filter="url(#shadow1)">
    <rect x="120" y="140" width="280" height="300" rx="12" fill="white"/>
    <rect x="120" y="140" width="280" height="4" rx="2" fill="#6366f1"/>
    <rect x="152" y="176" width="48" height="48" rx="10" fill="#eef2ff"/>
    <path d="M168 196 h16 M168 200 h16 M168 204 h12" stroke="#6366f1" stroke-width="1.5" stroke-linecap="round"/>
    <text x="152" y="256" font-size="18" font-weight="700" fill="#1e1b4b">Inbox Unificado</text>
    <text x="152" y="280" font-size="14" fill="#64748b">WhatsApp, Instagram, e-mail</text>
    <text x="152" y="300" font-size="14" fill="#64748b">e chat ao vivo em uma única</text>
    <text x="152" y="320" font-size="14" fill="#64748b">caixa de entrada inteligente.</text>
  </g>

  <!-- Card 2: Automações -->
  <g filter="url(#shadow1)">
    <rect x="440" y="140" width="280" height="300" rx="12" fill="white"/>
    <rect x="440" y="140" width="280" height="4" rx="2" fill="#8b5cf6"/>
    <rect x="472" y="176" width="48" height="48" rx="10" fill="#f5f3ff"/>
    <path d="M492 192 l8 8 l8-8 M492 204 l8 8 l8-8" stroke="#8b5cf6" stroke-width="1.5" fill="none" stroke-linecap="round" stroke-linejoin="round"/>
    <text x="472" y="256" font-size="18" font-weight="700" fill="#1e1b4b">Automações</text>
    <text x="472" y="280" font-size="14" fill="#64748b">Chatbots, respostas rápidas e</text>
    <text x="472" y="300" font-size="14" fill="#64748b">fluxos automatizados para</text>
    <text x="472" y="320" font-size="14" fill="#64748b">agilizar o atendimento.</text>
  </g>

  <!-- Card 3: Relatórios -->
  <g filter="url(#shadow1)">
    <rect x="760" y="140" width="280" height="300" rx="12" fill="white"/>
    <rect x="760" y="140" width="280" height="4" rx="2" fill="#10b981"/>
    <rect x="792" y="176" width="48" height="48" rx="10" fill="#d1fae5"/>
    <rect x="800" y="210" width="6" height="10" rx="1" fill="#10b981"/>
    <rect x="810" y="202" width="6" height="18" rx="1" fill="#10b981"/>
    <rect x="820" y="196" width="6" height="24" rx="1" fill="#10b981"/>
    <rect x="830" y="190" width="6" height="30" rx="1" fill="#10b981"/>
    <text x="792" y="256" font-size="18" font-weight="700" fill="#1e1b4b">Relatórios</text>
    <text x="792" y="280" font-size="14" fill="#64748b">Métricas em tempo real,</text>
    <text x="792" y="300" font-size="14" fill="#64748b">tempo de resposta e satisfação</text>
    <text x="792" y="320" font-size="14" fill="#64748b">do cliente em dashboards.</text>
  </g>

  <!-- Card 4: Integrações -->
  <g filter="url(#shadow1)">
    <rect x="1080" y="140" width="280" height="300" rx="12" fill="white"/>
    <rect x="1080" y="140" width="280" height="4" rx="2" fill="#f59e0b"/>
    <rect x="1112" y="176" width="48" height="48" rx="10" fill="#fef3c7"/>
    <circle cx="1132" cy="200" r="6" fill="none" stroke="#f59e0b" stroke-width="1.5"/>
    <circle cx="1144" cy="200" r="6" fill="none" stroke="#f59e0b" stroke-width="1.5"/>
    <text x="1112" y="256" font-size="18" font-weight="700" fill="#1e1b4b">Integrações</text>
    <text x="1112" y="280" font-size="14" fill="#64748b">Conecte com CRM, ERP e</text>
    <text x="1112" y="300" font-size="14" fill="#64748b">mais de 50 ferramentas via</text>
    <text x="1112" y="320" font-size="14" fill="#64748b">API e webhooks nativos.</text>
  </g>
</g>

<!-- ==================== COMO FUNCIONA SECTION ==================== -->
<g transform="translate(0, 1392)">
  <rect width="1440" height="420" fill="white"/>
  <text x="720" y="55" font-size="14" font-weight="600" fill="#6366f1" text-anchor="middle" letter-spacing="2">COMO FUNCIONA</text>
  <text x="720" y="92" font-size="36" font-weight="800" fill="#1e1b4b" text-anchor="middle">Comece em 3 passos simples</text>

  <!-- Step 1 -->
  <g transform="translate(180, 140)">
    <rect width="260" height="220" rx="16" fill="#fafafa" stroke="#e2e8f0" stroke-width="1"/>
    <circle cx="130" cy="60" r="28" fill="#eef2ff"/>
    <text x="130" y="68" font-size="22" font-weight="800" fill="#6366f1" text-anchor="middle">1</text>
    <!-- Icon: channels connecting -->
    <rect x="90" y="100" width="20" height="14" rx="3" fill="#c7d2fe"/>
    <rect x="120" y="100" width="20" height="14" rx="3" fill="#a5b4fc"/>
    <rect x="150" y="100" width="20" height="14" rx="3" fill="#818cf8"/>
    <text x="130" y="150" font-size="16" font-weight="700" fill="#1e1b4b" text-anchor="middle">Conecte seus canais</text>
    <text x="130" y="174" font-size="13" fill="#64748b" text-anchor="middle">WhatsApp, Instagram, e-mail</text>
    <text x="130" y="194" font-size="13" fill="#64748b" text-anchor="middle">em poucos cliques.</text>
  </g>

  <!-- Arrow 1 -->
  <path d="M470 260 L530 260" stroke="#c7d2fe" stroke-width="2" stroke-dasharray="6 4" marker-end="url(#arrowHead)"/>
  <defs><marker id="arrowHead" markerWidth="8" markerHeight="6" refX="8" refY="3" orient="auto"><path d="M0 0 L8 3 L0 6" fill="#6366f1"/></marker></defs>

  <!-- Step 2 -->
  <g transform="translate(560, 140)">
    <rect width="260" height="220" rx="16" fill="#fafafa" stroke="#e2e8f0" stroke-width="1"/>
    <circle cx="130" cy="60" r="28" fill="#f5f3ff"/>
    <text x="130" y="68" font-size="22" font-weight="800" fill="#8b5cf6" text-anchor="middle">2</text>
    <!-- Icon: message incoming -->
    <rect x="105" y="96" width="50" height="22" rx="6" fill="#ddd6fe"/>
    <rect x="113" y="104" width="30" height="4" rx="1" fill="#8b5cf6" opacity="0.5"/>
    <text x="130" y="150" font-size="16" font-weight="700" fill="#1e1b4b" text-anchor="middle">Receba mensagens</text>
    <text x="130" y="174" font-size="13" fill="#64748b" text-anchor="middle">Todas as conversas chegam</text>
    <text x="130" y="194" font-size="13" fill="#64748b" text-anchor="middle">em um inbox unificado.</text>
  </g>

  <!-- Arrow 2 -->
  <path d="M850 260 L910 260" stroke="#c7d2fe" stroke-width="2" stroke-dasharray="6 4" marker-end="url(#arrowHead)"/>

  <!-- Step 3 -->
  <g transform="translate(940, 140)">
    <rect width="260" height="220" rx="16" fill="#fafafa" stroke="#e2e8f0" stroke-width="1"/>
    <circle cx="130" cy="60" r="28" fill="#d1fae5"/>
    <text x="130" y="68" font-size="22" font-weight="800" fill="#10b981" text-anchor="middle">3</text>
    <!-- Icon: unified dashboard -->
    <rect x="100" y="96" width="60" height="22" rx="4" fill="#a7f3d0"/>
    <rect x="104" y="100" width="14" height="14" rx="2" fill="#10b981" opacity="0.4"/>
    <rect x="122" y="102" width="30" height="4" rx="1" fill="#10b981" opacity="0.5"/>
    <rect x="122" y="110" width="20" height="4" rx="1" fill="#10b981" opacity="0.3"/>
    <text x="130" y="150" font-size="16" font-weight="700" fill="#1e1b4b" text-anchor="middle">Atenda em um só lugar</text>
    <text x="130" y="174" font-size="13" fill="#64748b" text-anchor="middle">Responda, organize e resolva</text>
    <text x="130" y="194" font-size="13" fill="#64748b" text-anchor="middle">tudo de forma centralizada.</text>
  </g>
</g>

<!-- ==================== PRICING SECTION ==================== -->
<g transform="translate(0, 1812)">
  <rect width="1440" height="540" fill="#fafafa"/>
  <text x="720" y="50" font-size="14" font-weight="600" fill="#6366f1" text-anchor="middle" letter-spacing="2">PREÇOS</text>
  <text x="720" y="88" font-size="36" font-weight="800" fill="#1e1b4b" text-anchor="middle">Planos para cada momento</text>

  <!-- Toggle Mensal / Anual -->
  <rect x="600" y="110" width="240" height="40" rx="20" fill="#f1f5f9"/>
  <rect x="604" y="114" width="116" height="32" rx="16" fill="white" filter="url(#shadow2)"/>
  <text x="662" y="135" font-size="13" font-weight="600" fill="#1e1b4b" text-anchor="middle">Mensal</text>
  <text x="780" y="135" font-size="13" font-weight="500" fill="#64748b" text-anchor="middle">Anual</text>
  <rect x="748" y="112" width="80" height="16" rx="8" fill="#d1fae5" transform="translate(0, 2)"/>
  <text x="788" y="125" font-size="9" font-weight="700" fill="#10b981" text-anchor="middle">-20%</text>

  <!-- Plan 1: Starter -->
  <g filter="url(#shadow1)">
    <rect x="160" y="175" width="320" height="310" rx="16" fill="white"/>
    <text x="320" y="215" font-size="14" font-weight="600" fill="#64748b" text-anchor="middle">Starter</text>
    <text x="320" y="258" font-size="42" font-weight="800" fill="#1e1b4b" text-anchor="middle">R$97</text>
    <text x="320" y="278" font-size="13" fill="#94a3b8" text-anchor="middle">/mês por usuário</text>
    <line x1="200" y1="296" x2="440" y2="296" stroke="#f1f5f9" stroke-width="1"/>
    <circle cx="208" cy="320" r="6" fill="#d1fae5"/><text x="222" y="324" font-size="13" fill="#475569">3 canais integrados</text>
    <circle cx="208" cy="346" r="6" fill="#d1fae5"/><text x="222" y="350" font-size="13" fill="#475569">1.000 mensagens/mês</text>
    <circle cx="208" cy="372" r="6" fill="#d1fae5"/><text x="222" y="376" font-size="13" fill="#475569">Relatórios básicos</text>
    <rect x="200" y="405" width="240" height="44" rx="10" fill="white" stroke="#6366f1" stroke-width="1.5"/>
    <text x="320" y="432" font-size="14" font-weight="600" fill="#6366f1" text-anchor="middle">Começar agora</text>
  </g>

  <!-- Plan 2: Pro (highlighted) -->
  <g filter="url(#shadow3)">
    <rect x="540" y="165" width="360" height="330" rx="16" fill="white" stroke="#6366f1" stroke-width="2"/>
    <rect x="660" y="165" width="100" height="24" rx="12" fill="#6366f1" transform="translate(-10, -12)"/>
    <text x="700" y="172" font-size="10" font-weight="700" fill="white" text-anchor="middle">MAIS POPULAR</text>
    <text x="720" y="218" font-size="14" font-weight="600" fill="#6366f1" text-anchor="middle">Pro</text>
    <text x="720" y="262" font-size="42" font-weight="800" fill="#1e1b4b" text-anchor="middle">R$197</text>
    <text x="720" y="282" font-size="13" fill="#94a3b8" text-anchor="middle">/mês por usuário</text>
    <line x1="580" y1="300" x2="860" y2="300" stroke="#f1f5f9" stroke-width="1"/>
    <circle cx="596" cy="324" r="6" fill="#d1fae5"/><text x="610" y="328" font-size="13" fill="#475569">Canais ilimitados</text>
    <circle cx="596" cy="350" r="6" fill="#d1fae5"/><text x="610" y="354" font-size="13" fill="#475569">10.000 mensagens/mês</text>
    <circle cx="596" cy="376" r="6" fill="#d1fae5"/><text x="610" y="380" font-size="13" fill="#475569">Automações + Chatbot</text>
    <circle cx="596" cy="402" r="6" fill="#d1fae5"/><text x="610" y="406" font-size="13" fill="#475569">Relatórios avançados</text>
    <rect x="580" y="425" width="280" height="44" rx="10" fill="url(#ctaGrad)"/>
    <text x="720" y="452" font-size="14" font-weight="700" fill="white" text-anchor="middle">Começar agora</text>
  </g>

  <!-- Plan 3: Enterprise -->
  <g filter="url(#shadow1)">
    <rect x="960" y="175" width="320" height="310" rx="16" fill="white"/>
    <text x="1120" y="215" font-size="14" font-weight="600" fill="#64748b" text-anchor="middle">Enterprise</text>
    <text x="1120" y="258" font-size="42" font-weight="800" fill="#1e1b4b" text-anchor="middle">Custom</text>
    <text x="1120" y="278" font-size="13" fill="#94a3b8" text-anchor="middle">contato para cotação</text>
    <line x1="1000" y1="296" x2="1240" y2="296" stroke="#f1f5f9" stroke-width="1"/>
    <circle cx="1008" cy="320" r="6" fill="#d1fae5"/><text x="1022" y="324" font-size="13" fill="#475569">Tudo do Pro +</text>
    <circle cx="1008" cy="346" r="6" fill="#d1fae5"/><text x="1022" y="350" font-size="13" fill="#475569">SLA dedicado</text>
    <circle cx="1008" cy="372" r="6" fill="#d1fae5"/><text x="1022" y="376" font-size="13" fill="#475569">Onboarding personalizado</text>
    <rect x="1000" y="405" width="240" height="44" rx="10" fill="white" stroke="#6366f1" stroke-width="1.5"/>
    <text x="1120" y="432" font-size="14" font-weight="600" fill="#6366f1" text-anchor="middle">Falar com vendas</text>
  </g>

  <!-- Guarantee badge -->
  <g transform="translate(580, 505)">
    <rect width="280" height="32" rx="16" fill="#f0fdf4" stroke="#bbf7d0" stroke-width="1"/>
    <path d="M24 12 L28 16 L36 8" stroke="#10b981" stroke-width="2" fill="none" stroke-linecap="round" stroke-linejoin="round" transform="translate(0,4)"/>
    <text x="48" y="21" font-size="13" font-weight="600" fill="#10b981">Garantia de 30 dias ou seu dinheiro de volta</text>
  </g>
</g>

<!-- ==================== DEPOIMENTOS SECTION ==================== -->
<g transform="translate(0, 2352)">
  <rect width="1440" height="340" fill="white"/>
  <text x="720" y="50" font-size="14" font-weight="600" fill="#6366f1" text-anchor="middle" letter-spacing="2">DEPOIMENTOS</text>
  <text x="720" y="88" font-size="36" font-weight="800" fill="#1e1b4b" text-anchor="middle">O que nossos clientes dizem</text>

  <!-- Testimonial 1 -->
  <g filter="url(#shadow2)">
    <rect x="120" y="120" width="360" height="190" rx="12" fill="white"/>
    <!-- Stars -->
    <text x="148" y="152" font-size="14" fill="#fbbf24">★ ★ ★ ★ ★</text>
    <text x="148" y="180" font-size="13" fill="#475569" font-style="italic">"O OmniFlow reduziu nosso tempo de</text>
    <text x="148" y="198" font-size="13" fill="#475569" font-style="italic">resposta em 60%. Nossos clientes</text>
    <text x="148" y="216" font-size="13" fill="#475569" font-style="italic">nunca estiveram tão satisfeitos."</text>
    <circle cx="164" cy="268" r="18" fill="#e0e7ff"/>
    <rect x="152" y="260" width="24" height="16" rx="8" fill="#c7d2fe"/>
    <text x="192" y="264" font-size="14" font-weight="600" fill="#1e1b4b">Ana Silva</text>
    <text x="192" y="280" font-size="12" fill="#94a3b8">CEO, TechStore</text>
  </g>

  <!-- Testimonial 2 -->
  <g filter="url(#shadow2)">
    <rect x="540" y="120" width="360" height="190" rx="12" fill="white"/>
    <text x="568" y="152" font-size="14" fill="#fbbf24">★ ★ ★ ★ ★</text>
    <text x="568" y="180" font-size="13" fill="#475569" font-style="italic">"A integração com WhatsApp foi</text>
    <text x="568" y="198" font-size="13" fill="#475569" font-style="italic">game-changer. Atendemos 3x mais</text>
    <text x="568" y="216" font-size="13" fill="#475569" font-style="italic">clientes com a mesma equipe."</text>
    <circle cx="584" cy="268" r="18" fill="#fce7f3"/>
    <rect x="572" y="260" width="24" height="16" rx="8" fill="#f9a8d4"/>
    <text x="612" y="264" font-size="14" font-weight="600" fill="#1e1b4b">Carlos Mendes</text>
    <text x="612" y="280" font-size="12" fill="#94a3b8">Diretor, ModaFit</text>
  </g>

  <!-- Testimonial 3 -->
  <g filter="url(#shadow2)">
    <rect x="960" y="120" width="360" height="190" rx="12" fill="white"/>
    <text x="988" y="152" font-size="14" fill="#fbbf24">★ ★ ★ ★ ★</text>
    <text x="988" y="180" font-size="13" fill="#475569" font-style="italic">"Melhor investimento que fizemos.</text>
    <text x="988" y="198" font-size="13" fill="#475569" font-style="italic">O suporte é incrível e a plataforma</text>
    <text x="988" y="216" font-size="13" fill="#475569" font-style="italic">é super intuitiva de usar."</text>
    <circle cx="1004" cy="268" r="18" fill="#d1fae5"/>
    <rect x="992" y="260" width="24" height="16" rx="8" fill="#6ee7b7"/>
    <text x="1032" y="264" font-size="14" font-weight="600" fill="#1e1b4b">Juliana Costa</text>
    <text x="1032" y="280" font-size="12" fill="#94a3b8">Gerente, SaúdePlus</text>
  </g>
</g>

<!-- ==================== CTA SECTION ==================== -->
<g transform="translate(0, 2500)">
  <rect width="1440" height="180" fill="url(#ctaGrad)"/>
  <text x="720" y="55" font-size="32" font-weight="800" fill="white" text-anchor="middle">Pronto para transformar seu atendimento?</text>
  <text x="720" y="85" font-size="16" fill="white" fill-opacity="0.8" text-anchor="middle">Comece agora e veja resultados em minutos.</text>
  <!-- Email input + button -->
  <rect x="420" y="108" width="380" height="48" rx="10" fill="white" fill-opacity="0.15" stroke="white" stroke-opacity="0.3" stroke-width="1"/>
  <text x="444" y="137" font-size="14" fill="white" fill-opacity="0.6">Seu melhor e-mail</text>
  <rect x="820" y="108" width="200" height="48" rx="10" fill="white"/>
  <text x="870" y="137" font-size="14" font-weight="700" fill="#6366f1">Começar grátis →</text>
</g>

<!-- ==================== FOOTER ==================== -->
<g transform="translate(0, 2680)">
  <rect width="1440" height="120" fill="#1e1b4b"/>
  <!-- Logo -->
  <circle cx="140" cy="40" r="12" fill="#6366f1"/>
  <text x="160" y="46" font-size="16" font-weight="700" fill="white">OmniFlow</text>
  <text x="140" y="70" font-size="12" fill="#94a3b8">© 2024 OmniFlow. Todos os direitos reservados.</text>

  <!-- Footer links -->
  <text x="600" y="38" font-size="12" font-weight="600" fill="white">Produto</text>
  <text x="600" y="58" font-size="12" fill="#94a3b8">Funcionalidades</text>
  <text x="600" y="76" font-size="12" fill="#94a3b8">Preços</text>

  <text x="760" y="38" font-size="12" font-weight="600" fill="white">Empresa</text>
  <text x="760" y="58" font-size="12" fill="#94a3b8">Sobre nós</text>
  <text x="760" y="76" font-size="12" fill="#94a3b8">Blog</text>

  <text x="920" y="38" font-size="12" font-weight="600" fill="white">Suporte</text>
  <text x="920" y="58" font-size="12" fill="#94a3b8">Central de ajuda</text>
  <text x="920" y="76" font-size="12" fill="#94a3b8">Contato</text>

  <!-- Social media icons -->
  <circle cx="1200" cy="40" r="16" fill="white" fill-opacity="0.1" stroke="white" stroke-opacity="0.2" stroke-width="1"/>
  <text x="1200" y="45" font-size="11" fill="white" text-anchor="middle">in</text>
  <circle cx="1244" cy="40" r="16" fill="white" fill-opacity="0.1" stroke="white" stroke-opacity="0.2" stroke-width="1"/>
  <text x="1244" y="45" font-size="11" fill="white" text-anchor="middle">ig</text>
  <circle cx="1288" cy="40" r="16" fill="white" fill-opacity="0.1" stroke="white" stroke-opacity="0.2" stroke-width="1"/>
  <text x="1288" y="45" font-size="11" fill="white" text-anchor="middle">X</text>
</g>

</svg>
