<svg xmlns="http://www.w3.org/2000/svg" width="1440" height="900" viewBox="0 0 1440 900">
<defs>
<filter id="sh" x="-2%" y="-2%" width="104%" height="108%"><feDropShadow dx="0" dy="1" stdDeviation="2" flood-opacity="0.06"/></filter>
</defs>
<rect width="1440" height="900" fill="#fafafa"/>

<!-- SIDEBAR 240px -->
<rect width="240" height="900" fill="#111827"/>

<!-- Logo -->
<rect x="20" y="20" width="32" height="32" rx="8" fill="#6366f1"/>
<path d="M30 30 L42 36 L30 42" fill="none" stroke="#fff" stroke-width="2.5" stroke-linecap="round" stroke-linejoin="round"/>
<text x="62" y="42" fill="#fff" font-family="Arial,Helvetica,sans-serif" font-size="17" font-weight="bold">OmniFlow</text>

<!-- Section: MENU -->
<text x="24" y="84" fill="#4b5563" font-family="Arial,sans-serif" font-size="10" font-weight="bold" letter-spacing="1.2">MENU</text>

<!-- Nav: Conversas ACTIVE -->
<rect x="0" y="96" width="4" height="40" fill="#6366f1"/>
<rect x="4" y="96" width="236" height="40" fill="#6366f120"/>
<rect x="24" y="108" width="16" height="16" rx="4" fill="#6366f1" opacity="0.25"/>
<rect x="28" y="112" width="4" height="3" rx="1" fill="#a5b4fc"/>
<rect x="28" y="117" width="8" height="3" rx="1" fill="#a5b4fc"/>
<text x="50" y="121" fill="#c7d2fe" font-family="Arial,sans-serif" font-size="13" font-weight="bold">Conversas</text>
<rect x="190" y="106" width="30" height="20" rx="10" fill="#6366f1"/>
<text x="205" y="120" fill="#fff" font-family="Arial,sans-serif" font-size="11" font-weight="bold" text-anchor="middle">12</text>

<!-- Nav: Clientes -->
<rect x="24" y="148" width="16" height="16" rx="4" fill="#8b5cf6" opacity="0.2"/>
<circle cx="32" cy="154" r="3" fill="#8b5cf6" opacity="0.6"/>
<circle cx="32" cy="154" r="5" fill="none" stroke="#8b5cf6" stroke-width="1" opacity="0.5"/>
<text x="50" y="161" fill="#9ca3af" font-family="Arial,sans-serif" font-size="13">Clientes</text>

<!-- Nav: Analytics -->
<rect x="24" y="180" width="16" height="16" rx="4" fill="#10b981" opacity="0.2"/>
<rect x="28" y="190" width="3" height="6" fill="#10b981" opacity="0.6"/>
<rect x="33" y="186" width="3" height="10" fill="#10b981" opacity="0.6"/>
<text x="50" y="193" fill="#9ca3af" font-family="Arial,sans-serif" font-size="13">Analytics</text>

<!-- Nav: Notificacoes -->
<rect x="24" y="212" width="16" height="16" rx="4" fill="#f59e0b" opacity="0.2"/>
<path d="M29 224 Q32 216 35 224" fill="none" stroke="#f59e0b" stroke-width="1.5" opacity="0.6"/>
<circle cx="32" cy="225" r="1.5" fill="#f59e0b" opacity="0.6"/>
<text x="50" y="225" fill="#9ca3af" font-family="Arial,sans-serif" font-size="13">Notificações</text>
<rect x="190" y="214" width="22" height="18" rx="9" fill="#ef4444"/>
<text x="201" y="227" fill="#fff" font-family="Arial,sans-serif" font-size="10" font-weight="bold" text-anchor="middle">3</text>

<!-- Nav: Automacoes -->
<rect x="24" y="244" width="16" height="16" rx="4" fill="#f97316" opacity="0.2"/>
<path d="M30 248 L34 254 L31 254 L34 260" fill="none" stroke="#f97316" stroke-width="1.5" stroke-linecap="round" stroke-linejoin="round" opacity="0.6"/>
<text x="50" y="257" fill="#9ca3af" font-family="Arial,sans-serif" font-size="13">Automações</text>

<!-- Nav: Relatorios -->
<rect x="24" y="276" width="16" height="16" rx="4" fill="#06b6d4" opacity="0.2"/>
<rect x="28" y="280" width="8" height="10" rx="1" fill="none" stroke="#06b6d4" stroke-width="1.2" opacity="0.6"/>
<line x1="30" y1="284" x2="34" y2="284" stroke="#06b6d4" stroke-width="1" opacity="0.5"/>
<line x1="30" y1="287" x2="34" y2="287" stroke="#06b6d4" stroke-width="1" opacity="0.5"/>
<text x="50" y="289" fill="#9ca3af" font-family="Arial,sans-serif" font-size="13">Relatórios</text>

<!-- Separator -->
<line x1="24" y1="312" x2="216" y2="312" stroke="#1f2937" stroke-width="1"/>
<text x="24" y="340" fill="#4b5563" font-family="Arial,sans-serif" font-size="10" font-weight="bold" letter-spacing="1.2">SISTEMA</text>

<!-- Nav: Configuracoes -->
<rect x="24" y="352" width="16" height="16" rx="4" fill="#6b7280" opacity="0.15"/>
<circle cx="32" cy="360" r="5" fill="none" stroke="#6b7280" stroke-width="1.2" opacity="0.5"/>
<circle cx="32" cy="360" r="1.5" fill="#6b7280" opacity="0.5"/>
<text x="50" y="365" fill="#9ca3af" font-family="Arial,sans-serif" font-size="13">Configurações</text>

<!-- Nav: Perfil -->
<rect x="24" y="384" width="16" height="16" rx="4" fill="#6b7280" opacity="0.15"/>
<circle cx="32" cy="389" r="3" fill="#6b7280" opacity="0.4"/>
<path d="M27 397 Q32 393 37 397" fill="#6b7280" opacity="0.4"/>
<text x="50" y="397" fill="#9ca3af" font-family="Arial,sans-serif" font-size="13">Perfil</text>

<!-- Nav: Ajuda -->
<rect x="24" y="416" width="16" height="16" rx="4" fill="#6b7280" opacity="0.15"/>
<circle cx="32" cy="424" r="5" fill="none" stroke="#6b7280" stroke-width="1.2" opacity="0.5"/>
<text x="32" y="428" fill="#6b7280" font-family="Arial,sans-serif" font-size="9" font-weight="bold" text-anchor="middle" opacity="0.6">?</text>
<text x="50" y="429" fill="#9ca3af" font-family="Arial,sans-serif" font-size="13">Ajuda</text>

<!-- User Card -->
<rect x="12" y="836" width="216" height="52" rx="12" fill="#1f2937"/>
<circle cx="40" cy="862" r="18" fill="#6366f1"/>
<text x="40" y="867" fill="#fff" font-family="Arial,sans-serif" font-size="12" font-weight="bold" text-anchor="middle">JS</text>
<circle cx="54" cy="876" r="6" fill="#1f2937"/>
<circle cx="54" cy="876" r="4" fill="#10b981"/>
<text x="66" y="858" fill="#e5e7eb" font-family="Arial,sans-serif" font-size="13" font-weight="bold">João Silva</text>
<text x="66" y="874" fill="#6b7280" font-family="Arial,sans-serif" font-size="11">Proprietário</text>
<!-- COLUMN 2: CONVERSATION LIST 320px -->
<rect x="240" y="0" width="320" height="900" fill="#fff"/>
<line x1="240" y1="0" x2="240" y2="900" stroke="#e5e7eb"/>
<line x1="560" y1="0" x2="560" y2="900" stroke="#e5e7eb"/>

<!-- Header -->
<text x="264" y="38" fill="#111827" font-family="Arial,sans-serif" font-size="20" font-weight="bold">Conversas</text>
<rect x="488" y="14" width="56" height="32" rx="8" fill="#6366f1"/>
<text x="516" y="35" fill="#fff" font-family="Arial,sans-serif" font-size="12" font-weight="bold" text-anchor="middle">+ Nova</text>

<!-- Search -->
<rect x="264" y="54" width="272" height="36" rx="18" fill="#f3f4f6" stroke="#e5e7eb"/>
<circle cx="282" cy="72" r="6" fill="none" stroke="#9ca3af" stroke-width="1.5"/>
<line x1="286" y1="76" x2="290" y2="80" stroke="#9ca3af" stroke-width="1.5" stroke-linecap="round"/>
<text x="298" y="77" fill="#9ca3af" font-family="Arial,sans-serif" font-size="13">Buscar conversas...</text>

<!-- Filter Pills -->
<rect x="264" y="100" width="50" height="26" rx="13" fill="#6366f1"/>
<text x="289" y="117" fill="#fff" font-family="Arial,sans-serif" font-size="11" font-weight="bold" text-anchor="middle">Todas</text>
<rect x="320" y="100" width="76" height="26" rx="13" fill="#f3f4f6"/>
<text x="348" y="117" fill="#6b7280" font-family="Arial,sans-serif" font-size="11" text-anchor="middle">Não lidas</text>
<rect x="384" y="102" width="16" height="16" rx="8" fill="#6366f1"/>
<text x="392" y="114" fill="#fff" font-family="Arial,sans-serif" font-size="8" font-weight="bold" text-anchor="middle">12</text>
<rect x="404" y="100" width="58" height="26" rx="13" fill="#f3f4f6"/>
<text x="433" y="117" fill="#6b7280" font-family="Arial,sans-serif" font-size="11" text-anchor="middle">Abertas</text>
<rect x="468" y="100" width="66" height="26" rx="13" fill="#f3f4f6"/>
<text x="501" y="117" fill="#6b7280" font-family="Arial,sans-serif" font-size="11" text-anchor="middle">Fechadas</text>

<!-- Quick Stats -->
<text x="264" y="148" fill="#9ca3af" font-family="Arial,sans-serif" font-size="11">47 abertas · 12 não lidas</text>

<!-- Conv 1: Ana Costa SELECTED -->
<rect x="240" y="160" width="320" height="76" fill="#eef2ff"/>
<rect x="240" y="160" width="4" height="76" fill="#6366f1"/>
<circle cx="276" cy="190" r="18" fill="#ec4899"/>
<text x="276" y="195" fill="#fff" font-family="Arial,sans-serif" font-size="11" font-weight="bold" text-anchor="middle">AC</text>
<text x="302" y="182" fill="#111827" font-family="Arial,sans-serif" font-size="13" font-weight="bold">Ana Costa</text>
<rect x="374" y="172" width="28" height="16" rx="8" fill="#22c55e"/>
<text x="388" y="184" fill="#fff" font-family="Arial,sans-serif" font-size="9" font-weight="bold" text-anchor="middle">WA</text>
<text x="536" y="182" fill="#9ca3af" font-family="Arial,sans-serif" font-size="11" text-anchor="end">10:42</text>
<text x="302" y="202" fill="#6b7280" font-family="Arial,sans-serif" font-size="12">Olá, gostaria de saber sobre...</text>
<rect x="520" y="194" width="20" height="16" rx="8" fill="#6366f1"/>
<text x="530" y="206" fill="#fff" font-family="Arial,sans-serif" font-size="9" font-weight="bold" text-anchor="middle">2</text>

<!-- Conv 2: Pedro Santos -->
<rect x="240" y="236" width="320" height="76" fill="#fff"/>
<line x1="264" y1="236" x2="536" y2="236" stroke="#f3f4f6"/>
<circle cx="276" cy="266" r="18" fill="#3b82f6"/>
<text x="276" y="271" fill="#fff" font-family="Arial,sans-serif" font-size="11" font-weight="bold" text-anchor="middle">PS</text>
<text x="302" y="258" fill="#111827" font-family="Arial,sans-serif" font-size="13" font-weight="bold">Pedro Santos</text>
<rect x="394" y="248" width="22" height="16" rx="8" fill="#e91e8c"/>
<text x="405" y="260" fill="#fff" font-family="Arial,sans-serif" font-size="9" font-weight="bold" text-anchor="middle">IG</text>
<text x="536" y="258" fill="#9ca3af" font-family="Arial,sans-serif" font-size="11" text-anchor="end">09:15</text>
<text x="302" y="278" fill="#6b7280" font-family="Arial,sans-serif" font-size="12">Preciso de ajuda com meu...</text>

<!-- Conv 3: Maria Lima -->
<rect x="240" y="312" width="320" height="76" fill="#fff"/>
<line x1="264" y1="312" x2="536" y2="312" stroke="#f3f4f6"/>
<circle cx="276" cy="342" r="18" fill="#f59e0b"/>
<text x="276" y="347" fill="#fff" font-family="Arial,sans-serif" font-size="11" font-weight="bold" text-anchor="middle">ML</text>
<text x="302" y="334" fill="#111827" font-family="Arial,sans-serif" font-size="13" font-weight="bold">Maria Lima</text>
<rect x="380" y="324" width="26" height="16" rx="8" fill="#3b82f6"/>
<text x="393" y="336" fill="#fff" font-family="Arial,sans-serif" font-size="9" font-weight="bold" text-anchor="middle">EM</text>
<text x="536" y="334" fill="#9ca3af" font-family="Arial,sans-serif" font-size="11" text-anchor="end">Ontem</text>
<text x="302" y="354" fill="#6b7280" font-family="Arial,sans-serif" font-size="12">O pedido #4521 ainda não...</text>
<rect x="520" y="346" width="20" height="16" rx="8" fill="#6366f1"/>
<text x="530" y="358" fill="#fff" font-family="Arial,sans-serif" font-size="9" font-weight="bold" text-anchor="middle">1</text>

<!-- Conv 4: Carlos Oliveira -->
<rect x="240" y="388" width="320" height="76" fill="#fff"/>
<line x1="264" y1="388" x2="536" y2="388" stroke="#f3f4f6"/>
<circle cx="276" cy="418" r="18" fill="#10b981"/>
<text x="276" y="423" fill="#fff" font-family="Arial,sans-serif" font-size="11" font-weight="bold" text-anchor="middle">CO</text>
<text x="302" y="410" fill="#111827" font-family="Arial,sans-serif" font-size="13">Carlos Oliveira</text>
<rect x="404" y="400" width="28" height="16" rx="8" fill="#22c55e"/>
<text x="418" y="412" fill="#fff" font-family="Arial,sans-serif" font-size="9" font-weight="bold" text-anchor="middle">WA</text>
<text x="536" y="410" fill="#9ca3af" font-family="Arial,sans-serif" font-size="11" text-anchor="end">Ontem</text>
<text x="302" y="430" fill="#6b7280" font-family="Arial,sans-serif" font-size="12">Obrigado pelo atendimento!</text>

<!-- Conv 5: Julia Mendes -->
<rect x="240" y="464" width="320" height="76" fill="#fff"/>
<line x1="264" y1="464" x2="536" y2="464" stroke="#f3f4f6"/>
<circle cx="276" cy="494" r="18" fill="#8b5cf6"/>
<text x="276" y="499" fill="#fff" font-family="Arial,sans-serif" font-size="11" font-weight="bold" text-anchor="middle">JM</text>
<text x="302" y="486" fill="#111827" font-family="Arial,sans-serif" font-size="13">Julia Mendes</text>
<rect x="394" y="476" width="22" height="16" rx="8" fill="#e91e8c"/>
<text x="405" y="488" fill="#fff" font-family="Arial,sans-serif" font-size="9" font-weight="bold" text-anchor="middle">IG</text>
<text x="536" y="486" fill="#9ca3af" font-family="Arial,sans-serif" font-size="11" text-anchor="end">Seg</text>
<text x="302" y="506" fill="#6b7280" font-family="Arial,sans-serif" font-size="12">Vocês têm esse produto em...</text>

<!-- COLUMN 3: CHAT AREA -->
<rect x="560" y="0" width="600" height="900" fill="#fff"/>

<!-- Chat Header -->
<rect x="560" y="0" width="600" height="64" fill="#fff" filter="url(#sh)"/>
<circle cx="592" cy="32" r="18" fill="#ec4899"/>
<text x="592" y="37" fill="#fff" font-family="Arial,sans-serif" font-size="11" font-weight="bold" text-anchor="middle">AC</text>
<text x="620" y="27" fill="#111827" font-family="Arial,sans-serif" font-size="15" font-weight="bold">Ana Costa</text>
<circle cx="622" cy="42" r="4" fill="#10b981"/>
<text x="632" y="46" fill="#10b981" font-family="Arial,sans-serif" font-size="11">Online</text>
<rect x="682" y="22" width="70" height="22" rx="11" fill="#dcfce7"/>
<text x="717" y="37" fill="#16a34a" font-family="Arial,sans-serif" font-size="10" font-weight="bold" text-anchor="middle">WhatsApp</text>
<rect x="960" y="18" width="60" height="28" rx="6" fill="none" stroke="#d1d5db" stroke-width="1.5"/>
<text x="990" y="37" fill="#6b7280" font-family="Arial,sans-serif" font-size="11" text-anchor="middle">Atribuir</text>
<rect x="1028" y="18" width="52" height="28" rx="6" fill="none" stroke="#fca5a5" stroke-width="1.5"/>
<text x="1054" y="37" fill="#ef4444" font-family="Arial,sans-serif" font-size="11" text-anchor="middle">Fechar</text>
<rect x="1088" y="18" width="32" height="28" rx="6" fill="none" stroke="#d1d5db" stroke-width="1.5"/>
<text x="1104" y="38" fill="#6b7280" font-family="Arial,sans-serif" font-size="16" text-anchor="middle">···</text>

<!-- Date Separator -->
<line x1="600" y1="100" x2="730" y2="100" stroke="#e5e7eb"/>
<rect x="738" y="90" width="80" height="20" rx="10" fill="#f9fafb" stroke="#e5e7eb"/>
<text x="778" y="104" fill="#9ca3af" font-family="Arial,sans-serif" font-size="11" text-anchor="middle">Hoje</text>
<line x1="826" y1="100" x2="1120" y2="100" stroke="#e5e7eb"/>

<!-- Customer Msg 1 -->
<circle cx="588" cy="140" r="14" fill="#ec4899"/>
<text x="588" y="145" fill="#fff" font-family="Arial,sans-serif" font-size="8" font-weight="bold" text-anchor="middle">AC</text>
<path d="M608 140 L616 134 L616 146 Z" fill="#f3f4f6"/>
<rect x="614" y="124" width="290" height="44" rx="12" fill="#f3f4f6"/>
<text x="628" y="144" fill="#374151" font-family="Arial,sans-serif" font-size="13">Olá! Gostaria de saber sobre o plano</text>
<text x="628" y="160" fill="#374151" font-family="Arial,sans-serif" font-size="13">Premium. Quais são os benefícios?</text>
<text x="628" y="180" fill="#9ca3af" font-family="Arial,sans-serif" font-size="10">10:30</text>

<!-- Agent Msg 1 -->
<rect x="760" y="196" width="330" height="60" rx="12" fill="#6366f1"/>
<path d="M1094 218 L1102 212 L1102 224 Z" fill="#6366f1"/>
<text x="776" y="216" fill="#fff" font-family="Arial,sans-serif" font-size="13">Olá Ana! Fico feliz com seu interesse!</text>
<text x="776" y="232" fill="#fff" font-family="Arial,sans-serif" font-size="13">O plano Premium inclui atendimento</text>
<text x="776" y="248" fill="#fff" font-family="Arial,sans-serif" font-size="13">prioritário e acesso a todos os canais.</text>
<text x="1068" y="270" fill="#c7d2fe" font-family="Arial,sans-serif" font-size="10" text-anchor="end">10:32 ✓✓</text>

<!-- Customer Msg 2 -->
<circle cx="588" cy="302" r="14" fill="#ec4899"/>
<text x="588" y="307" fill="#fff" font-family="Arial,sans-serif" font-size="8" font-weight="bold" text-anchor="middle">AC</text>
<path d="M608 302 L616 296 L616 308 Z" fill="#f3f4f6"/>
<rect x="614" y="288" width="260" height="32" rx="12" fill="#f3f4f6"/>
<text x="628" y="309" fill="#374151" font-family="Arial,sans-serif" font-size="13">Interessante! E qual é o valor mensal?</text>
<text x="628" y="332" fill="#9ca3af" font-family="Arial,sans-serif" font-size="10">10:35</text>

<!-- Agent Msg 2 -->
<rect x="800" y="348" width="290" height="44" rx="12" fill="#6366f1"/>
<path d="M1094 370 L1102 364 L1102 376 Z" fill="#6366f1"/>
<text x="816" y="368" fill="#fff" font-family="Arial,sans-serif" font-size="13">O plano Premium é R$ 199/mês com</text>
<text x="816" y="384" fill="#fff" font-family="Arial,sans-serif" font-size="13">desconto de 20% no plano anual!</text>
<text x="1068" y="406" fill="#c7d2fe" font-family="Arial,sans-serif" font-size="10" text-anchor="end">10:38 ✓✓</text>

<!-- Customer Msg 3 -->
<circle cx="588" cy="438" r="14" fill="#ec4899"/>
<text x="588" y="443" fill="#fff" font-family="Arial,sans-serif" font-size="8" font-weight="bold" text-anchor="middle">AC</text>
<path d="M608 438 L616 432 L616 444 Z" fill="#f3f4f6"/>
<rect x="614" y="422" width="310" height="32" rx="12" fill="#f3f4f6"/>
<text x="628" y="443" fill="#374151" font-family="Arial,sans-serif" font-size="13">Ótimo! Vou pensar e retorno em breve.</text>
<text x="628" y="466" fill="#9ca3af" font-family="Arial,sans-serif" font-size="10">10:42</text>

<!-- Quick Reply Suggestions -->
<rect x="560" y="780" width="600" height="40" fill="#f9fafb"/>
<line x1="560" y1="780" x2="1160" y2="780" stroke="#e5e7eb"/>
<rect x="580" y="788" width="82" height="26" rx="13" fill="#eef2ff" stroke="#c7d2fe"/>
<text x="621" y="805" fill="#6366f1" font-family="Arial,sans-serif" font-size="11" text-anchor="middle">Obrigado!</text>
<rect x="670" y="788" width="100" height="26" rx="13" fill="#eef2ff" stroke="#c7d2fe"/>
<text x="720" y="805" fill="#6366f1" font-family="Arial,sans-serif" font-size="11" text-anchor="middle">Vou verificar</text>
<rect x="778" y="788" width="100" height="26" rx="13" fill="#eef2ff" stroke="#c7d2fe"/>
<text x="828" y="805" fill="#6366f1" font-family="Arial,sans-serif" font-size="11" text-anchor="middle">Um momento</text>

<!-- Input Bar -->
<rect x="560" y="820" width="600" height="80" fill="#fff"/>
<line x1="560" y1="820" x2="1160" y2="820" stroke="#e5e7eb"/>
<rect x="580" y="836" width="420" height="42" rx="21" fill="#f3f4f6" stroke="#e5e7eb"/>
<text x="608" y="862" fill="#9ca3af" font-family="Arial,sans-serif" font-size="13">Digite sua mensagem...</text>
<!-- Attach -->
<circle cx="1020" cy="857" r="17" fill="none" stroke="#d1d5db" stroke-width="1.5"/>
<path d="M1014 862 L1014 852 Q1014 848 1018 848 L1022 848 Q1026 848 1026 852 L1026 862" fill="none" stroke="#9ca3af" stroke-width="1.5" stroke-linecap="round"/>
<!-- Emoji -->
<circle cx="1060" cy="857" r="17" fill="none" stroke="#d1d5db" stroke-width="1.5"/>
<circle cx="1060" cy="857" r="9" fill="none" stroke="#9ca3af" stroke-width="1.2"/>
<circle cx="1056" cy="854" r="1.2" fill="#9ca3af"/>
<circle cx="1064" cy="854" r="1.2" fill="#9ca3af"/>
<path d="M1055 860 Q1060 864 1065 860" fill="none" stroke="#9ca3af" stroke-width="1"/>
<!-- Send -->
<circle cx="1104" cy="857" r="17" fill="#6366f1"/>
<path d="M1098 857 L1110 857 M1106 852 L1112 857 L1106 862" fill="none" stroke="#fff" stroke-width="2" stroke-linecap="round" stroke-linejoin="round"/>
<text x="860" y="892" fill="#c4c8cf" font-family="Arial,sans-serif" font-size="10" text-anchor="middle">Enter para enviar</text>

<!-- Divider -->
<line x1="1160" y1="0" x2="1160" y2="900" stroke="#e5e7eb"/>

<!-- RIGHT PANEL: CUSTOMER DETAILS 280px -->
<rect x="1160" y="0" width="280" height="900" fill="#fff"/>

<!-- Avatar + Info -->
<circle cx="1300" cy="52" r="30" fill="#ec4899"/>
<text x="1300" y="59" fill="#fff" font-family="Arial,sans-serif" font-size="16" font-weight="bold" text-anchor="middle">AC</text>
<circle cx="1324" cy="74" r="7" fill="#fff"/>
<circle cx="1324" cy="74" r="5" fill="#10b981"/>
<text x="1300" y="104" fill="#111827" font-family="Arial,sans-serif" font-size="16" font-weight="bold" text-anchor="middle">Ana Costa</text>
<text x="1300" y="122" fill="#6b7280" font-family="Arial,sans-serif" font-size="12" text-anchor="middle">Gerente de Marketing</text>
<text x="1300" y="138" fill="#9ca3af" font-family="Arial,sans-serif" font-size="12" text-anchor="middle">TechCorp Brasil</text>

<!-- Action Buttons -->
<rect x="1210" y="154" width="50" height="34" rx="8" fill="#f3f4f6"/>
<path d="M1230 166 Q1230 162 1234 162 L1236 162 Q1240 162 1240 166 L1240 172 Q1240 176 1236 176 L1234 176 Q1230 176 1230 172Z" fill="none" stroke="#6b7280" stroke-width="1.2"/>
<line x1="1228" y1="176" x2="1242" y2="176" stroke="#6b7280" stroke-width="1.2"/>
<rect x="1274" y="154" width="50" height="34" rx="8" fill="#f3f4f6"/>
<rect x="1290" y="163" width="16" height="12" rx="2" fill="none" stroke="#6b7280" stroke-width="1.2"/>
<path d="M1290 166 L1298 172 L1306 166" fill="none" stroke="#6b7280" stroke-width="1"/>
<rect x="1338" y="154" width="50" height="34" rx="8" fill="#f3f4f6"/>
<rect x="1354" y="163" width="12" height="14" rx="1" fill="none" stroke="#6b7280" stroke-width="1.2"/>
<line x1="1358" y1="167" x2="1364" y2="167" stroke="#6b7280" stroke-width="1"/>
<line x1="1358" y1="171" x2="1362" y2="171" stroke="#6b7280" stroke-width="1"/>

<!-- Divider -->
<line x1="1184" y1="204" x2="1416" y2="204" stroke="#f3f4f6" stroke-width="1"/>

<!-- INFORMACOES -->
<text x="1184" y="228" fill="#9ca3af" font-family="Arial,sans-serif" font-size="10" font-weight="bold" letter-spacing="1.2">INFORMAÇÕES</text>
<text x="1184" y="252" fill="#9ca3af" font-family="Arial,sans-serif" font-size="11">Email</text>
<text x="1184" y="268" fill="#111827" font-family="Arial,sans-serif" font-size="12" font-weight="bold">ana.costa@techcorp.com</text>
<text x="1184" y="292" fill="#9ca3af" font-family="Arial,sans-serif" font-size="11">Telefone</text>
<text x="1184" y="308" fill="#111827" font-family="Arial,sans-serif" font-size="12" font-weight="bold">+55 11 98765-4321</text>
<text x="1184" y="332" fill="#9ca3af" font-family="Arial,sans-serif" font-size="11">Localização</text>
<text x="1184" y="348" fill="#111827" font-family="Arial,sans-serif" font-size="12" font-weight="bold">São Paulo, SP</text>
<text x="1184" y="372" fill="#9ca3af" font-family="Arial,sans-serif" font-size="11">Cliente desde</text>
<text x="1184" y="388" fill="#111827" font-family="Arial,sans-serif" font-size="12" font-weight="bold">15 Mar 2024</text>

<!-- Divider -->
<line x1="1184" y1="408" x2="1416" y2="408" stroke="#f3f4f6" stroke-width="1"/>

<!-- TAGS -->
<text x="1184" y="432" fill="#9ca3af" font-family="Arial,sans-serif" font-size="10" font-weight="bold" letter-spacing="1.2">TAGS</text>
<rect x="1184" y="444" width="38" height="22" rx="11" fill="#eef2ff"/>
<text x="1203" y="459" fill="#6366f1" font-family="Arial,sans-serif" font-size="10" font-weight="bold" text-anchor="middle">VIP</text>
<rect x="1228" y="444" width="72" height="22" rx="11" fill="#fef3c7"/>
<text x="1264" y="459" fill="#d97706" font-family="Arial,sans-serif" font-size="10" font-weight="bold" text-anchor="middle">Recorrente</text>
<rect x="1306" y="444" width="60" height="22" rx="11" fill="#d1fae5"/>
<text x="1336" y="459" fill="#059669" font-family="Arial,sans-serif" font-size="10" font-weight="bold" text-anchor="middle">Premium</text>
<rect x="1372" y="444" width="22" height="22" rx="11" fill="#f3f4f6" stroke="#d1d5db"/>
<text x="1383" y="460" fill="#9ca3af" font-family="Arial,sans-serif" font-size="14" text-anchor="middle">+</text>

<!-- Divider -->
<line x1="1184" y1="482" x2="1416" y2="482" stroke="#f3f4f6" stroke-width="1"/>

<!-- NOTAS -->
<text x="1184" y="506" fill="#9ca3af" font-family="Arial,sans-serif" font-size="10" font-weight="bold" letter-spacing="1.2">NOTAS</text>
<rect x="1184" y="518" width="232" height="60" rx="8" fill="#fafafa" stroke="#e5e7eb"/>
<text x="1196" y="536" fill="#374151" font-family="Arial,sans-serif" font-size="12">Cliente interessada no plano</text>
<text x="1196" y="552" fill="#374151" font-family="Arial,sans-serif" font-size="12">Premium. Agendar follow-up.</text>
<text x="1196" y="570" fill="#9ca3af" font-family="Arial,sans-serif" font-size="10">Hoje, 10:40 — João Silva</text>
<rect x="1184" y="588" width="232" height="30" rx="6" fill="none" stroke="#d1d5db" stroke-dasharray="4 2"/>
<text x="1300" y="608" fill="#9ca3af" font-family="Arial,sans-serif" font-size="11" text-anchor="middle">+ Adicionar nota</text>

<!-- Divider -->
<line x1="1184" y1="634" x2="1416" y2="634" stroke="#f3f4f6" stroke-width="1"/>

<!-- ATIVIDADE -->
<text x="1184" y="658" fill="#9ca3af" font-family="Arial,sans-serif" font-size="10" font-weight="bold" letter-spacing="1.2">ATIVIDADE</text>

<!-- Timeline -->
<circle cx="1192" cy="680" r="4" fill="#6366f1"/>
<line x1="1192" y1="684" x2="1192" y2="710" stroke="#e5e7eb" stroke-width="1.5"/>
<text x="1206" y="684" fill="#374151" font-family="Arial,sans-serif" font-size="12">Conversa iniciada</text>
<text x="1206" y="698" fill="#9ca3af" font-family="Arial,sans-serif" font-size="10">Hoje, 10:30</text>

<circle cx="1192" cy="720" r="4" fill="#10b981"/>
<line x1="1192" y1="724" x2="1192" y2="750" stroke="#e5e7eb" stroke-width="1.5"/>
<text x="1206" y="724" fill="#374151" font-family="Arial,sans-serif" font-size="12">Tag VIP adicionada</text>
<text x="1206" y="738" fill="#9ca3af" font-family="Arial,sans-serif" font-size="10">Ontem, 15:20</text>

<circle cx="1192" cy="760" r="4" fill="#f59e0b"/>
<line x1="1192" y1="764" x2="1192" y2="790" stroke="#e5e7eb" stroke-width="1.5"/>
<text x="1206" y="764" fill="#374151" font-family="Arial,sans-serif" font-size="12">Primeiro contato via WA</text>
<text x="1206" y="778" fill="#9ca3af" font-family="Arial,sans-serif" font-size="10">15 Mar, 09:00</text>

<circle cx="1192" cy="800" r="4" fill="#8b5cf6"/>
<text x="1206" y="804" fill="#374151" font-family="Arial,sans-serif" font-size="12">Cadastro realizado</text>
<text x="1206" y="818" fill="#9ca3af" font-family="Arial,sans-serif" font-size="10">15 Mar, 08:45</text>

</svg>
