<svg xmlns="http://www.w3.org/2000/svg" width="1440" height="900" viewBox="0 0 1440 900">
  <defs><style>text{font-family:'Inter',sans-serif}</style></defs>
  <rect width="1440" height="900" fill="#fafafa"/>
  <!-- Sidebar -->
  <rect width="240" height="900" fill="#111827"/>
  <text x="28" y="40" fill="#fff" font-size="20" font-weight="700">🌀 OmniFlow</text>
  <line x1="16" y1="56" x2="224" y2="56" stroke="#1f2937"/>
  <g fill="#9ca3af" font-size="14">
    <text x="28" y="84">💬  Conversas</text>
    <text x="28" y="116">👥  Clientes</text>
    <text x="28" y="148">📊  Analytics</text>
    <text x="28" y="180">🔔  Notificações</text>
    <text x="28" y="212">⚡  Automações</text>
    <text x="28" y="244">📄  Relatórios</text>
  </g>
  <line x1="16" y1="268" x2="224" y2="268" stroke="#1f2937"/>
  <!-- Active: Configurações -->
  <rect x="8" y="276" width="224" height="36" rx="8" fill="#6366f1" opacity="0.15"/>
  <text x="28" y="299" fill="#6366f1" font-size="13" font-weight="600">⚙️  Configurações</text>
  <g fill="#6b7280" font-size="13">
    <text x="28" y="327">👤  Perfil</text>
    <text x="28" y="355">❓  Ajuda</text>
  </g>
  <rect x="12" y="844" width="216" height="44" rx="10" fill="#1f2937"/>
  <circle cx="36" cy="866" r="14" fill="#6366f1"/>
  <text x="36" y="870" fill="#fff" font-size="10" text-anchor="middle">LF</text>
  <text x="58" y="862" fill="#e5e7eb" font-size="12" font-weight="600">Luciano F.</text>
  <text x="58" y="878" fill="#6b7280" font-size="10">Admin</text>

  <!-- Main -->
  <g transform="translate(240,0)">
    <rect width="1200" height="56" fill="#fff"/>
    <line x1="0" y1="56" x2="1200" y2="56" stroke="#e5e7eb"/>
    <text x="32" y="35" fill="#9ca3af" font-size="12">Dashboard &gt; Integrações</text>

    <text x="32" y="100" fill="#111827" font-size="24" font-weight="700">Integrações</text>
    <text x="32" y="120" fill="#6b7280" font-size="13">Conecte o OmniFlow com suas ferramentas</text>

    <!-- Integration Cards Grid -->
    <!-- Row 1 -->
    <!-- WhatsApp - Connected -->
    <g transform="translate(32,144)">
      <rect width="540" height="130" rx="12" fill="#fff" stroke="#e5e7eb"/>
      <text x="24" y="36" font-size="28">📱</text>
      <text x="64" y="36" fill="#111827" font-size="16" font-weight="700">WhatsApp</text>
      <text x="64" y="56" fill="#6b7280" font-size="12">Receba e envie mensagens via WhatsApp Business API</text>
      <rect x="64" y="70" width="80" height="22" rx="11" fill="#d1fae5"/>
      <text x="104" y="85" fill="#059669" font-size="11" font-weight="600" text-anchor="middle">Conectado</text>
      <rect x="390" y="68" width="120" height="32" rx="8" fill="none" stroke="#fecaca"/>
      <text x="450" y="89" fill="#ef4444" font-size="12" text-anchor="middle">Desconectar</text>
    </g>

    <!-- Instagram Direct - Coming soon -->
    <g transform="translate(592,144)">
      <rect width="540" height="130" rx="12" fill="#fff" stroke="#e5e7eb"/>
      <text x="24" y="36" font-size="28">📷</text>
      <text x="64" y="36" fill="#111827" font-size="16" font-weight="700">Instagram Direct</text>
      <text x="64" y="56" fill="#6b7280" font-size="12">Gerencie mensagens do Instagram Direct</text>
      <rect x="64" y="70" width="80" height="22" rx="11" fill="#f3f4f6"/>
      <text x="104" y="85" fill="#9ca3af" font-size="11" font-weight="600" text-anchor="middle">Em breve</text>
      <rect x="390" y="68" width="120" height="32" rx="8" fill="#f3f4f6"/>
      <text x="450" y="89" fill="#d1d5db" font-size="12" text-anchor="middle">Conectar</text>
    </g>

    <!-- Row 2 -->
    <!-- Facebook Messenger -->
    <g transform="translate(32,290)">
      <rect width="540" height="130" rx="12" fill="#fff" stroke="#e5e7eb"/>
      <text x="24" y="36" font-size="28">💬</text>
      <text x="64" y="36" fill="#111827" font-size="16" font-weight="700">Facebook Messenger</text>
      <text x="64" y="56" fill="#6b7280" font-size="12">Integre com o Messenger da sua página</text>
      <rect x="64" y="70" width="80" height="22" rx="11" fill="#f3f4f6"/>
      <text x="104" y="85" fill="#9ca3af" font-size="11" font-weight="600" text-anchor="middle">Em breve</text>
      <rect x="390" y="68" width="120" height="32" rx="8" fill="#f3f4f6"/>
      <text x="450" y="89" fill="#d1d5db" font-size="12" text-anchor="middle">Conectar</text>
    </g>

    <!-- Email SMTP -->
    <g transform="translate(592,290)">
      <rect width="540" height="130" rx="12" fill="#fff" stroke="#e5e7eb"/>
      <text x="24" y="36" font-size="28">📧</text>
      <text x="64" y="36" fill="#111827" font-size="16" font-weight="700">Email (SMTP)</text>
      <text x="64" y="56" fill="#6b7280" font-size="12">Conecte sua caixa de e-mail via SMTP/IMAP</text>
      <rect x="64" y="70" width="80" height="22" rx="11" fill="#f3f4f6"/>
      <text x="104" y="85" fill="#9ca3af" font-size="11" font-weight="600" text-anchor="middle">Em breve</text>
      <rect x="390" y="68" width="120" height="32" rx="8" fill="#f3f4f6"/>
      <text x="450" y="89" fill="#d1d5db" font-size="12" text-anchor="middle">Conectar</text>
    </g>

    <!-- Row 3 -->
    <!-- Zapier -->
    <g transform="translate(32,436)">
      <rect width="540" height="130" rx="12" fill="#fff" stroke="#e5e7eb"/>
      <text x="24" y="36" font-size="28">⚡</text>
      <text x="64" y="36" fill="#111827" font-size="16" font-weight="700">Zapier</text>
      <text x="64" y="56" fill="#6b7280" font-size="12">Conecte com milhares de apps via Zapier</text>
      <rect x="64" y="70" width="80" height="22" rx="11" fill="#f3f4f6"/>
      <text x="104" y="85" fill="#9ca3af" font-size="11" font-weight="600" text-anchor="middle">Em breve</text>
      <rect x="390" y="68" width="120" height="32" rx="8" fill="#f3f4f6"/>
      <text x="450" y="89" fill="#d1d5db" font-size="12" text-anchor="middle">Conectar</text>
    </g>

    <!-- Webhooks -->
    <g transform="translate(592,436)">
      <rect width="540" height="130" rx="12" fill="#fff" stroke="#e5e7eb"/>
      <text x="24" y="36" font-size="28">🔗</text>
      <text x="64" y="36" fill="#111827" font-size="16" font-weight="700">Webhooks</text>
      <text x="64" y="56" fill="#6b7280" font-size="12">Configure webhooks para integrações customizadas</text>
      <rect x="64" y="70" width="80" height="22" rx="11" fill="#f3f4f6"/>
      <text x="104" y="85" fill="#9ca3af" font-size="11" font-weight="600" text-anchor="middle">Em breve</text>
      <rect x="390" y="68" width="120" height="32" rx="8" fill="#f3f4f6"/>
      <text x="450" y="89" fill="#d1d5db" font-size="12" text-anchor="middle">Conectar</text>
    </g>

    <!-- Documentation Link -->
    <g transform="translate(32,590)">
      <rect width="1100" height="70" rx="12" fill="#fff" stroke="#e5e7eb"/>
      <text x="24" y="28" fill="#111827" font-size="15" font-weight="600">📚 Documentação de Integrações</text>
      <text x="24" y="50" fill="#6b7280" font-size="12">Consulte nossa documentação completa para configurar integrações via API e webhooks</text>
      <text x="1020" y="40" fill="#6366f1" font-size="13" font-weight="600" text-decoration="underline">Ver docs →</text>
    </g>
  </g>
</svg>
