<svg xmlns="http://www.w3.org/2000/svg" width="1440" height="900" fill="none">
<defs><style>@import url('https://fonts.googleapis.com/css2?family=Inter:wght@400;500;600;700&amp;display=swap');text{font-family:'Inter',sans-serif}</style></defs>
<rect width="1440" height="900" fill="#fafafa"/>
<!-- Sidebar -->
<rect width="240" height="900" fill="#111827"/>
<text x="28" y="38" fill="#fff" font-size="20" font-weight="700">⚡ OmniFlow</text>
<line x1="16" y1="52" x2="224" y2="52" stroke="#1f2937"/>
<text x="28" y="80" fill="#9ca3af" font-size="11" font-weight="600" letter-spacing="1">MENU</text>
<text x="28" y="114" fill="#9ca3af" font-size="14">💬  Conversas</text>
<text x="28" y="154" fill="#9ca3af" font-size="14">👥  Clientes</text>
<text x="28" y="194" fill="#9ca3af" font-size="14">📊  Analytics</text>
<text x="28" y="234" fill="#9ca3af" font-size="14">🔔  Notificações</text>
<text x="28" y="274" fill="#9ca3af" font-size="14">⚡  Automações</text>
<text x="28" y="314" fill="#9ca3af" font-size="14">📄  Relatórios</text>
<line x1="16" y1="340" x2="224" y2="340" stroke="#1f2937"/>
<rect x="8" y="352" width="224" height="36" rx="8" fill="#6366f1" opacity="0.15"/>
<text x="28" y="376" fill="#6366f1" font-size="14" font-weight="600">⚙️  Configurações</text>
<text x="28" y="416" fill="#9ca3af" font-size="14">👤  Perfil</text>
<text x="28" y="456" fill="#9ca3af" font-size="14">❓  Ajuda</text>
<rect x="8" y="840" width="224" height="52" rx="10" fill="#1f2937"/>
<circle cx="34" cy="866" r="16" fill="#6366f1"/>
<text x="30" y="871" fill="#fff" font-size="12" font-weight="600" text-anchor="middle">J</text>
<text x="58" y="861" fill="#fff" font-size="13" font-weight="600">João Silva</text>
<text x="58" y="877" fill="#9ca3af" font-size="11">joao@omniflow.com</text>
<!-- Breadcrumb -->
<text x="272" y="38" fill="#9ca3af" font-size="13">Dashboard  &gt;  <tspan fill="#6366f1" font-weight="500">Planos e Pagamento</tspan></text>
<!-- Current Plan Card -->
<rect x="272" y="60" width="560" height="200" rx="12" fill="#fff" stroke="#e5e7eb"/>
<text x="296" y="92" fill="#111827" font-size="16" font-weight="700">Plano Atual</text>
<rect x="400" y="76" width="100" height="24" rx="12" fill="#6366f1" opacity="0.12"/>
<text x="450" y="93" fill="#6366f1" font-size="12" font-weight="600" text-anchor="middle">Professional</text>
<text x="296" y="130" fill="#111827" font-size="28" font-weight="700">R$ 149</text>
<text x="418" y="130" fill="#6b7280" font-size="14">/mês</text>
<rect x="700" y="76" width="112" height="36" rx="8" fill="#6366f1"/>
<text x="756" y="100" fill="#fff" font-size="13" font-weight="600" text-anchor="middle">Alterar Plano</text>
<text x="296" y="162" fill="#6b7280" font-size="13">Conversas este mês: 248 / Ilimitadas</text>
<rect x="296" y="170" width="510" height="8" rx="4" fill="#e5e7eb"/>
<rect x="296" y="170" width="306" height="8" rx="4" fill="#6366f1"/>
<text x="296" y="206" fill="#6b7280" font-size="13">Usuários ativos: 3 / 5</text>
<rect x="296" y="214" width="510" height="8" rx="4" fill="#e5e7eb"/>
<rect x="296" y="214" width="306" height="8" rx="4" fill="#8b5cf6"/>
<!-- Payment Method Card -->
<rect x="856" y="60" width="340" height="200" rx="12" fill="#fff" stroke="#e5e7eb"/>
<text x="880" y="92" fill="#111827" font-size="16" font-weight="700">Método de Pagamento</text>
<rect x="880" y="110" width="290" height="70" rx="10" fill="#f3f4f6"/>
<text x="904" y="142" fill="#111827" font-size="22">💳</text>
<text x="940" y="138" fill="#111827" font-size="15" font-weight="600">•••• •••• •••• 4242</text>
<text x="940" y="158" fill="#6b7280" font-size="12">Expira 12/2025</text>
<rect x="880" y="196" width="90" height="34" rx="8" fill="#fff" stroke="#6366f1"/>
<text x="925" y="218" fill="#6366f1" font-size="13" font-weight="600" text-anchor="middle">Alterar</text>
<!-- Invoice Table -->
<rect x="272" y="280" width="924" height="260" rx="12" fill="#fff" stroke="#e5e7eb"/>
<text x="296" y="312" fill="#111827" font-size="16" font-weight="700">Histórico de Faturas</text>
<line x1="272" y1="328" x2="1196" y2="328" stroke="#e5e7eb"/>
<text x="296" y="352" fill="#6b7280" font-size="12" font-weight="600">Data</text>
<text x="520" y="352" fill="#6b7280" font-size="12" font-weight="600">Descrição</text>
<text x="780" y="352" fill="#6b7280" font-size="12" font-weight="600">Valor</text>
<text x="920" y="352" fill="#6b7280" font-size="12" font-weight="600">Status</text>
<text x="1080" y="352" fill="#6b7280" font-size="12" font-weight="600">Ação</text>
<line x1="272" y1="366" x2="1196" y2="366" stroke="#f3f4f6"/>
<text x="296" y="394" fill="#111827" font-size="13">01/01/2025</text>
<text x="520" y="394" fill="#111827" font-size="13">Plano Professional</text>
<text x="780" y="394" fill="#111827" font-size="13" font-weight="600">R$ 149,00</text>
<rect x="920" y="380" width="56" height="22" rx="11" fill="#10b981" opacity="0.12"/>
<text x="948" y="396" fill="#10b981" font-size="12" font-weight="600" text-anchor="middle">Pago</text>
<text x="1080" y="394" fill="#6366f1" font-size="13">Baixar PDF</text>
<line x1="296" y1="412" x2="1172" y2="412" stroke="#f3f4f6"/>
<text x="296" y="440" fill="#111827" font-size="13">01/12/2024</text>
<text x="520" y="440" fill="#111827" font-size="13">Plano Professional</text>
<text x="780" y="440" fill="#111827" font-size="13" font-weight="600">R$ 149,00</text>
<rect x="920" y="426" width="56" height="22" rx="11" fill="#10b981" opacity="0.12"/>
<text x="948" y="442" fill="#10b981" font-size="12" font-weight="600" text-anchor="middle">Pago</text>
<text x="1080" y="440" fill="#6366f1" font-size="13">Baixar PDF</text>
<line x1="296" y1="458" x2="1172" y2="458" stroke="#f3f4f6"/>
<text x="296" y="486" fill="#111827" font-size="13">01/11/2024</text>
<text x="520" y="486" fill="#111827" font-size="13">Plano Professional</text>
<text x="780" y="486" fill="#111827" font-size="13" font-weight="600">R$ 149,00</text>
<rect x="920" y="472" width="56" height="22" rx="11" fill="#10b981" opacity="0.12"/>
<text x="948" y="488" fill="#10b981" font-size="12" font-weight="600" text-anchor="middle">Pago</text>
<text x="1080" y="486" fill="#6366f1" font-size="13">Baixar PDF</text>
<!-- Danger Zone -->
<rect x="272" y="560" width="924" height="100" rx="12" fill="#fff" stroke="#ef4444" stroke-width="1.5"/>
<text x="296" y="594" fill="#ef4444" font-size="16" font-weight="700">Zona de Perigo</text>
<text x="296" y="618" fill="#6b7280" font-size="13">Ao cancelar, você perderá acesso aos recursos premium ao final do período atual.</text>
<rect x="296" y="630" width="180" height="36" rx="8" fill="#ef4444"/>
<text x="386" y="654" fill="#fff" font-size="13" font-weight="600" text-anchor="middle">Cancelar Assinatura</text>
</svg>