<svg xmlns="http://www.w3.org/2000/svg" width="1440" height="900" fill="none">
<defs><style>@import url('https://fonts.googleapis.com/css2?family=Inter:wght@400;500;600;700&amp;display=swap');text{font-family:'Inter',sans-serif}</style></defs>
<rect width="1440" height="900" fill="#fafafa"/>
<!-- Sidebar -->
<rect width="240" height="900" fill="#111827"/>
<text x="28" y="38" fill="#fff" font-size="20" font-weight="700">⚡ OmniFlow</text>
<line x1="16" y1="52" x2="224" y2="52" stroke="#1f2937"/>
<text x="28" y="80" fill="#9ca3af" font-size="11" font-weight="600" letter-spacing="1">MENU</text>
<text x="28" y="114" fill="#9ca3af" font-size="14">💬  Conversas</text>
<text x="28" y="154" fill="#9ca3af" font-size="14">👥  Clientes</text>
<rect x="8" y="170" width="224" height="36" rx="8" fill="#6366f1" opacity="0.15"/>
<text x="28" y="194" fill="#6366f1" font-size="14" font-weight="600">📊  Analytics</text>
<text x="28" y="234" fill="#9ca3af" font-size="14">🔔  Notificações</text>
<text x="28" y="274" fill="#9ca3af" font-size="14">⚡  Automações</text>
<text x="28" y="314" fill="#9ca3af" font-size="14">📄  Relatórios</text>
<line x1="16" y1="340" x2="224" y2="340" stroke="#1f2937"/>
<text x="28" y="376" fill="#9ca3af" font-size="14">⚙️  Configurações</text>
<text x="28" y="416" fill="#9ca3af" font-size="14">👤  Perfil</text>
<text x="28" y="456" fill="#9ca3af" font-size="14">❓  Ajuda</text>
<rect x="8" y="840" width="224" height="52" rx="10" fill="#1f2937"/>
<circle cx="34" cy="866" r="16" fill="#6366f1"/>
<text x="30" y="871" fill="#fff" font-size="12" font-weight="600" text-anchor="middle">J</text>
<text x="58" y="861" fill="#fff" font-size="13" font-weight="600">João Silva</text>
<text x="58" y="877" fill="#9ca3af" font-size="11">joao@omniflow.com</text>
<!-- Breadcrumb -->
<text x="272" y="38" fill="#9ca3af" font-size="13">Dashboard  &gt;  Analytics  &gt;  <tspan fill="#6366f1" font-weight="500">Relatório de Atendente</tspan></text>
<!-- Header -->
<text x="272" y="76" fill="#111827" font-size="22" font-weight="700">Relatório de Atendente</text>
<rect x="520" y="56" width="170" height="36" rx="8" fill="#fff" stroke="#d1d5db"/>
<text x="536" y="80" fill="#111827" font-size="14">João Silva  ▾</text>
<!-- 4 Metric Cards -->
<!-- Card 1 -->
<rect x="272" y="104" width="220" height="120" rx="12" fill="#fff" stroke="#e5e7eb"/>
<text x="296" y="130" fill="#6b7280" font-size="12">Conversas Atendidas</text>
<text x="296" y="162" fill="#111827" font-size="28" font-weight="700">48</text>
<text x="296" y="184" fill="#6b7280" font-size="11">vs equipe: 42</text>
<rect x="380" y="170" width="48" height="20" rx="10" fill="#10b981" opacity="0.12"/>
<text x="404" y="184" fill="#10b981" font-size="11" font-weight="600" text-anchor="middle">+14%</text>
<!-- Card 2 -->
<rect x="506" y="104" width="220" height="120" rx="12" fill="#fff" stroke="#e5e7eb"/>
<text x="530" y="130" fill="#6b7280" font-size="12">Tempo Médio</text>
<text x="530" y="162" fill="#111827" font-size="28" font-weight="700">2m 15s</text>
<text x="530" y="184" fill="#6b7280" font-size="11">vs equipe: 3m 30s</text>
<rect x="654" y="170" width="48" height="20" rx="10" fill="#10b981" opacity="0.12"/>
<text x="678" y="184" fill="#10b981" font-size="11" font-weight="600" text-anchor="middle">-36%</text>
<!-- Card 3 -->
<rect x="740" y="104" width="220" height="120" rx="12" fill="#fff" stroke="#e5e7eb"/>
<text x="764" y="130" fill="#6b7280" font-size="12">Taxa Resolução</text>
<text x="764" y="162" fill="#111827" font-size="28" font-weight="700">92%</text>
<text x="764" y="184" fill="#6b7280" font-size="11">vs equipe: 88%</text>
<rect x="870" y="170" width="44" height="20" rx="10" fill="#10b981" opacity="0.12"/>
<text x="892" y="184" fill="#10b981" font-size="11" font-weight="600" text-anchor="middle">+5%</text>
<!-- Card 4 -->
<rect x="974" y="104" width="220" height="120" rx="12" fill="#fff" stroke="#e5e7eb"/>
<text x="998" y="130" fill="#6b7280" font-size="12">Avaliação</text>
<text x="998" y="162" fill="#111827" font-size="28" font-weight="700">4.7<tspan font-size="14" fill="#6b7280">/5</tspan></text>
<text x="998" y="184" fill="#6b7280" font-size="11">vs equipe: 4.5</text>
<rect x="1104" y="170" width="44" height="20" rx="10" fill="#10b981" opacity="0.12"/>
<text x="1126" y="184" fill="#10b981" font-size="11" font-weight="600" text-anchor="middle">+4%</text>
<!-- Chart -->
<rect x="272" y="244" width="924" height="260" rx="12" fill="#fff" stroke="#e5e7eb"/>
<text x="296" y="276" fill="#111827" font-size="16" font-weight="700">Desempenho Semanal</text>
<!-- Y axis labels -->
<text x="296" y="310" fill="#9ca3af" font-size="10">12</text>
<text x="296" y="350" fill="#9ca3af" font-size="10">8</text>
<text x="296" y="390" fill="#9ca3af" font-size="10">4</text>
<text x="296" y="430" fill="#9ca3af" font-size="10">0</text>
<!-- Grid lines -->
<line x1="320" y1="306" x2="1168" y2="306" stroke="#f3f4f6"/>
<line x1="320" y1="346" x2="1168" y2="346" stroke="#f3f4f6"/>
<line x1="320" y1="386" x2="1168" y2="386" stroke="#f3f4f6"/>
<line x1="320" y1="426" x2="1168" y2="426" stroke="#f3f4f6"/>
<!-- Bars (7 days) -->
<rect x="370" y="330" width="60" height="96" rx="4" fill="#6366f1"/>
<text x="400" y="446" fill="#6b7280" font-size="11" text-anchor="middle">Seg</text>
<rect x="480" y="310" width="60" height="116" rx="4" fill="#6366f1"/>
<text x="510" y="446" fill="#6b7280" font-size="11" text-anchor="middle">Ter</text>
<rect x="590" y="346" width="60" height="80" rx="4" fill="#6366f1"/>
<text x="620" y="446" fill="#6b7280" font-size="11" text-anchor="middle">Qua</text>
<rect x="700" y="320" width="60" height="106" rx="4" fill="#6366f1"/>
<text x="730" y="446" fill="#6b7280" font-size="11" text-anchor="middle">Qui</text>
<rect x="810" y="306" width="60" height="120" rx="4" fill="#6366f1"/>
<text x="840" y="446" fill="#6b7280" font-size="11" text-anchor="middle">Sex</text>
<rect x="920" y="366" width="60" height="60" rx="4" fill="#8b5cf6" opacity="0.6"/>
<text x="950" y="446" fill="#6b7280" font-size="11" text-anchor="middle">Sáb</text>
<rect x="1030" y="386" width="60" height="40" rx="4" fill="#8b5cf6" opacity="0.6"/>
<text x="1060" y="446" fill="#6b7280" font-size="11" text-anchor="middle">Dom</text>
<!-- Table -->
<rect x="272" y="524" width="924" height="280" rx="12" fill="#fff" stroke="#e5e7eb"/>
<text x="296" y="556" fill="#111827" font-size="16" font-weight="700">Conversas Recentes</text>
<line x1="272" y1="570" x2="1196" y2="570" stroke="#e5e7eb"/>
<text x="296" y="594" fill="#6b7280" font-size="12" font-weight="600">Cliente</text>
<text x="500" y="594" fill="#6b7280" font-size="12" font-weight="600">Canal</text>
<text x="660" y="594" fill="#6b7280" font-size="12" font-weight="600">Status</text>
<text x="860" y="594" fill="#6b7280" font-size="12" font-weight="600">Tempo Resposta</text>
<text x="1050" y="594" fill="#6b7280" font-size="12" font-weight="600">Data</text>
<line x1="272" y1="606" x2="1196" y2="606" stroke="#f3f4f6"/>
<!-- Row 1 -->
<text x="296" y="634" fill="#111827" font-size="13">Maria Santos</text>
<rect x="500" y="620" width="76" height="22" rx="11" fill="#10b981" opacity="0.12"/>
<text x="538" y="636" fill="#10b981" font-size="11" font-weight="600" text-anchor="middle">WhatsApp</text>
<rect x="660" y="620" width="72" height="22" rx="11" fill="#10b981" opacity="0.12"/>
<text x="696" y="636" fill="#10b981" font-size="11" font-weight="600" text-anchor="middle">Resolvida</text>
<text x="860" y="634" fill="#111827" font-size="13">1m 45s</text>
<text x="1050" y="634" fill="#6b7280" font-size="13">Hoje, 14:30</text>
<line x1="296" y1="650" x2="1172" y2="650" stroke="#f3f4f6"/>
<!-- Row 2 -->
<text x="296" y="678" fill="#111827" font-size="13">Carlos Oliveira</text>
<rect x="500" y="664" width="76" height="22" rx="11" fill="#10b981" opacity="0.12"/>
<text x="538" y="680" fill="#10b981" font-size="11" font-weight="600" text-anchor="middle">WhatsApp</text>
<rect x="660" y="664" width="100" height="22" rx="11" fill="#f59e0b" opacity="0.12"/>
<text x="710" y="680" fill="#f59e0b" font-size="11" font-weight="600" text-anchor="middle">Em andamento</text>
<text x="860" y="678" fill="#111827" font-size="13">3m 20s</text>
<text x="1050" y="678" fill="#6b7280" font-size="13">Hoje, 13:15</text>
<line x1="296" y1="694" x2="1172" y2="694" stroke="#f3f4f6"/>
<!-- Row 3 -->
<text x="296" y="722" fill="#111827" font-size="13">Ana Pereira</text>
<rect x="500" y="708" width="76" height="22" rx="11" fill="#10b981" opacity="0.12"/>
<text x="538" y="724" fill="#10b981" font-size="11" font-weight="600" text-anchor="middle">WhatsApp</text>
<rect x="660" y="708" width="72" height="22" rx="11" fill="#10b981" opacity="0.12"/>
<text x="696" y="724" fill="#10b981" font-size="11" font-weight="600" text-anchor="middle">Resolvida</text>
<text x="860" y="722" fill="#111827" font-size="13">2m 10s</text>
<text x="1050" y="722" fill="#6b7280" font-size="13">Hoje, 11:45</text>
<line x1="296" y1="738" x2="1172" y2="738" stroke="#f3f4f6"/>
<!-- Row 4 -->
<text x="296" y="766" fill="#111827" font-size="13">Pedro Lima</text>
<rect x="500" y="752" width="76" height="22" rx="11" fill="#10b981" opacity="0.12"/>
<text x="538" y="768" fill="#10b981" font-size="11" font-weight="600" text-anchor="middle">WhatsApp</text>
<rect x="660" y="752" width="72" height="22" rx="11" fill="#10b981" opacity="0.12"/>
<text x="696" y="768" fill="#10b981" font-size="11" font-weight="600" text-anchor="middle">Resolvida</text>
<text x="860" y="766" fill="#111827" font-size="13">1m 30s</text>
<text x="1050" y="766" fill="#6b7280" font-size="13">Ontem, 16:20</text>
</svg>